<?xml version="1.0" encoding="utf-8"?>
<!-- Generator: Adobe Illustrator 25.3.1, SVG Export Plug-In . SVG Version: 6.00 Build 0)  -->
<svg version="1.1" id="Layer_1" xmlns="http://www.w3.org/2000/svg" xmlns:xlink="http://www.w3.org/1999/xlink" x="0px" y="0px"
	 viewBox="0 0 794.7 758.3" style="enable-background:new 0 0 794.7 758.3;" xml:space="preserve">
<style type="text/css">
	.st0{fill:#172554;}
	.st1{fill:#FFFFFF;}
</style>
<g>
	<circle class="st0" cx="394.7" cy="380.4" r="298"/>
	<g>
		<g>
			<path class="st1" d="M376.1,506.1c-84.7,0-153.6-68.9-153.6-153.6s68.9-153.6,153.6-153.6s153.6,68.9,153.6,153.6
				S460.8,506.1,376.1,506.1z M376.1,226.8c-69.3,0-125.7,56.4-125.7,125.7s56.4,125.7,125.7,125.7s125.7-56.4,125.7-125.7
				S445.4,226.8,376.1,226.8z"/>
		</g>
		<g>
			<path class="st1" d="M562.3,552.7c-3.6,0-7.1-1.4-9.9-4.1l-87.6-87.6c-5.5-5.5-5.5-14.3,0-19.8c5.5-5.5,14.3-5.5,19.8,0
				l87.6,87.6c5.5,5.5,5.5,14.3,0,19.8C569.4,551.3,565.9,552.7,562.3,552.7z"/>
		</g>
	</g>
</g>
</svg>
